<?xml version="1.0" encoding="UTF-8"?><svg id="Layer_2" xmlns="http://www.w3.org/2000/svg" xmlns:xlink="http://www.w3.org/1999/xlink" viewBox="0 0 200 202.02"><defs><style>.cls-1{clip-path:url(#clippath);}.cls-2{fill:#06bbe5;}.cls-3{fill:url(#radial-gradient-2);}.cls-4{fill:url(#radial-gradient);}</style><radialGradient id="radial-gradient" cx="209.28" cy="211.39" fx="209.28" fy="211.39" r="210.34" gradientTransform="scale(.48)" gradientUnits="userSpaceOnUse"><stop offset="0" stop-color="#183058"/><stop offset=".19" stop-color="#95d1e2"/><stop offset=".48" stop-color="#06bbe5"/><stop offset=".73" stop-color="#00b3e0"/><stop offset="1" stop-color="#183058"/></radialGradient><clipPath id="clippath"><path class="cls-4" d="m166.71,106.48c.12-19.51-6.33-39.88-19.95-57.11-.06-.08-.12-.15-.18-.23-.28-.36-.56-.71-.85-1.06-5.01-6.17-10.64-11.53-16.7-16.05,0,0-.02-.02-.03-.02-11.24-9.01-25.03-15.04-40.06-16.96-.04,0-.09-.02-.12-.02-5.2-.78-10.43-1.07-15.61-.84-.43,0-.85.03-1.28.06-14.88.82-29.3,5.85-41.41,15.42-1.15.9-2.25,1.84-3.33,2.8l-.03.03c-10.82,8.8-19.2,20.32-24.05,33.38-.5,1.35-2.28,1.52-3.1.34l-.03-.03c2.2-6.12,5.02-11.97,8.4-17.5,10.09-16.05,24.76-29.59,43.27-38.46,1.44-.69,2.88-1.35,4.34-1.97.5-.21,1.02-.42,1.52-.63.26-.1.52-.22.79-.32.57-.23,1.14-.44,1.71-.66.39-.15.78-.3,1.17-.43.08-.03.16-.06.24-.09C70.74,2.85,80.67.79,91.06.19c16.73-.97,32.74,1.92,47.07,7.88.4.17.81.34,1.21.51,1,.43,1.99.88,2.98,1.35,20.35,9.63,37.55,25.84,47.88,47.39,18.56,38.74,9.86,83.65-18.45,113.76-8.7,9.26-19.28,17.12-31.48,22.97-3.39,1.62-6.81,3.05-10.27,4.28-31.26,8.83-65.72,1.82-90.68-20.87-1.65-1.49-3.26-3.06-4.82-4.69-2.08-2.19-4.05-4.45-5.88-6.78-6.91-8.73-12.03-18.4-15.41-28.53-1.64-4.87-2.87-9.86-3.67-14.91-.09-.49-.17-.96-.23-1.45h0c-.11-.76-.21-1.53-.3-2.29,0-.04,0-.09-.02-.14-.96-7.87-.56-15.87,1.17-23.61,0-.04.02-.1.03-.14,6.44-28.67,27.4-50.27,53.32-58.71,3.87-1.26,7.87-2.22,11.94-2.88,4.4-.7,8.89-1.03,13.44-.96,3.01-.1,5.39,1.49,5.93,4.27.56,2.88-.92,5.59-3.81,6.16l-3.34.56c-7.01,1.16-13.76,3.46-20.01,6.72-17.37,9.07-30.87,25.67-35.56,46.59-6.22,27.67,4.72,55.09,25.66,70.69,7.21,5.37,15.61,9.33,24.91,11.41,11.88,2.67,23.76,1.94,34.64-1.56.03,0,.04,0,.06-.03,2.54-.81,5.01-1.77,7.43-2.88.23-.1.46-.21.69-.32,5.88-2.78,11.35-6.4,16.25-10.77.5-.44.99-.89,1.48-1.34.23-.22.47-.43.69-.67.03-.02.06-.04.09-.09,5.59-5.33,10.15-11.46,13.69-18.1,5.66-10.62,8.78-22.56,9.02-34.88,0-.41.01-1.23.02-1.64Z"/></clipPath><radialGradient id="radial-gradient-2" cy="211.39" fy="211.39" r="234.56" xlink:href="#radial-gradient"/></defs><g id="Layer_1-2"><g><g><path class="cls-4" d="m166.71,106.48c.12-19.51-6.33-39.88-19.95-57.11-.06-.08-.12-.15-.18-.23-.28-.36-.56-.71-.85-1.06-5.01-6.17-10.64-11.53-16.7-16.05,0,0-.02-.02-.03-.02-11.24-9.01-25.03-15.04-40.06-16.96-.04,0-.09-.02-.12-.02-5.2-.78-10.43-1.07-15.61-.84-.43,0-.85.03-1.28.06-14.88.82-29.3,5.85-41.41,15.42-1.15.9-2.25,1.84-3.33,2.8l-.03.03c-10.82,8.8-19.2,20.32-24.05,33.38-.5,1.35-2.28,1.52-3.1.34l-.03-.03c2.2-6.12,5.02-11.97,8.4-17.5,10.09-16.05,24.76-29.59,43.27-38.46,1.44-.69,2.88-1.35,4.34-1.97.5-.21,1.02-.42,1.52-.63.26-.1.52-.22.79-.32.57-.23,1.14-.44,1.71-.66.39-.15.78-.3,1.17-.43.08-.03.16-.06.24-.09C70.74,2.85,80.67.79,91.06.19c16.73-.97,32.74,1.92,47.07,7.88.4.17.81.34,1.21.51,1,.43,1.99.88,2.98,1.35,20.35,9.63,37.55,25.84,47.88,47.39,18.56,38.74,9.86,83.65-18.45,113.76-8.7,9.26-19.28,17.12-31.48,22.97-3.39,1.62-6.81,3.05-10.27,4.28-31.26,8.83-65.72,1.82-90.68-20.87-1.65-1.49-3.26-3.06-4.82-4.69-2.08-2.19-4.05-4.45-5.88-6.78-6.91-8.73-12.03-18.4-15.41-28.53-1.64-4.87-2.87-9.86-3.67-14.91-.09-.49-.17-.96-.23-1.45h0c-.11-.76-.21-1.53-.3-2.29,0-.04,0-.09-.02-.14-.96-7.87-.56-15.87,1.17-23.61,0-.04.02-.1.03-.14,6.44-28.67,27.4-50.27,53.32-58.71,3.87-1.26,7.87-2.22,11.94-2.88,4.4-.7,8.89-1.03,13.44-.96,3.01-.1,5.39,1.49,5.93,4.27.56,2.88-.92,5.59-3.81,6.16l-3.34.56c-7.01,1.16-13.76,3.46-20.01,6.72-17.37,9.07-30.87,25.67-35.56,46.59-6.22,27.67,4.72,55.09,25.66,70.69,7.21,5.37,15.61,9.33,24.91,11.41,11.88,2.67,23.76,1.94,34.64-1.56.03,0,.04,0,.06-.03,2.54-.81,5.01-1.77,7.43-2.88.23-.1.46-.21.69-.32,5.88-2.78,11.35-6.4,16.25-10.77.5-.44.99-.89,1.48-1.34.23-.22.47-.43.69-.67.03-.02.06-.04.09-.09,5.59-5.33,10.15-11.46,13.69-18.1,5.66-10.62,8.78-22.56,9.02-34.88,0-.41.01-1.23.02-1.64Z"/><g class="cls-1"><path class="cls-3" d="m212.08,213.09H-12.08V-11.07h224.16v224.16Z"/></g></g><g><path class="cls-2" d="m83.81,53.46c1.15.28.96,1.22,1.5,1.74l-.6.35c-.44-.07-1-.24-1.41-.49-.41-.23-.65-.51-.54-.84.08-.11.58-.86,1.05-.76Z"/><path class="cls-2" d="m82.55,56.35c.13-.02.15.08.27.05l-.36.78.09-.84Z"/><path class="cls-2" d="m86.15,54.69l.54-.22c.15.05-.13.27-.08.36.24.04.49.1.74.13-.96-.03-.78.64-1.2-.28Z"/><path class="cls-2" d="m95.61,54.16c.72-.05.19.86.22,1.27-.41.29-1.05.15-.95-.34.52-.35.53-.72.73-.93Z"/><g><path class="cls-2" d="m89.24,53.29c.07.38-.24.62-.52.83-.28.2-.54.34-.35.65.16.26.33.52.56.63.18-.19.33-.43.48-.65.84-.24.79.04.68.4-.11.36-.3.81.42.83.23-.15.35-.22.4-.37.36-.62.1-.69-.37-.86,1.4-.95,1.92,1.11,2.77.54.97-1.05-.46-1.52-.47-2.07.36.49,1.19.61,2.1.29.94-.27,1.93-.97,2.64-1.75.19-.48.48-.89.81-1.29.32-.4.65-.83.99-1.27.65-.88,1.28-1.91,1.29-3.16.13-.22.26-.46.4-.72.12-.27.24-.55.37-.83.12-.3.25-.6.38-.91.11-.32.18-.64.26-.97l.19.03s-.1-.07-.17-.08c.26-.21.39-.54.47-.9.06-.36.04-.76.04-1.14,0-.37.01-.72.11-.99.08-.27.25-.47.6-.54l-.13-.25c-.16-1.26.51-.02.75-.78-.1-.6.02-1.31.04-1.96.01-.32,0-.63-.11-.87-.12-.24-.32-.42-.64-.5.05-.11.15,0,.2-.12l-.44-.9c-.29.01-.67-.07-.92.17-.03-.22-.41-.29-.42-.61-.26-.72.52-.28.66-.62-.94-1.82-2.08-3.7-2.74-5.61.41-.3.24-.89-.13-1.49-.4-.57-1-1.14-1.35-1.48-.4-.97-1.34-1.56-2.3-1.91-.47-.19-.92-.37-1.31-.58-.4-.19-.72-.44-.93-.81.53-.05,1.05.26,1.46.56.41.31.74.56,1.02.33l-.14-.51c-.58-.77-1.7-1.93-2.52-1.58.25.62.09.95.08,1.3-.43-.04-.62.15-1.1.02-.67-.24-1.3-.7-1.1-1.16.43,0,.75.36,1.09.48.38-.44-.79-1.06-1.12-1.41.1.76-.38,1.04-.67,1.36-.3.33-.39.62.28,1.41-.35-.06-.68-.15-1.04-.17-.57.4.09.93.54,1.5.47.55.77,1.04-.22,1.27-.29.24-.28.67-.86.73.05.54.55.69.87.56-.14.97,1.71,1.16,1,2.23.4,0,.68.1.87.28.18.19.26.46.32.73.05.28.08.58.12.86.04.29.08.58.22.82.38.59.57.58.81.39.23-.19.47-.56.86-.59.08.42.35.68.67.88.31.2.66.35.92.47.24.36-.03.8-.33.66.26,1.63.44,3.12.52,4.57.04,1.46,0,2.87-.16,4.26-.51.51-.45,1.04-.58,1.56-.14.5-.31,1.03-1.21,1.26l.29-.08c.15.02.15.17.18.29l.94-.23c-.22.28-.41.56-.51.88.41.36.18.8-.04,1.25-.19.46-.5.87-.19,1.35-.31.38-.57.59-.79.71-.21.13-.37.18-.53.23-.31.11-.66.18-1.44.7-.19.49-.48.98-.8,1.49-.38.44-.78.95-1.35,1.17-.4.2-.95.01-1-.22-.41.28-1.05.65-1.55.79-.87.83-.72,1.26-.14,1.4.29.07.67.08,1.05.06.37-.05.71-.16.94-.24Z"/><path class="cls-2" d="m101.96,28.17c.56-.16.26-1.09.3-1.5l-.38-.26c-.8-.75-1.33-.37-1.23.34.56-.11,1.12.86,1.31,1.42Z"/><path class="cls-2" d="m105.11,35.87l-.58-.04.37,1.22c.36-.07.25-.69.21-1.18Z"/><path class="cls-2" d="m86.74,21.4c.47.17.76.42,1.06.62.3.22.59.44,1.1.53l.18-1.04c-.41-.4-.84-.87-1.35-1.22-.51-.35-1.07-.72-1.74-.79-.53.46-.16.7.24.94.4.25.83.54.52.96Z"/><path class="cls-2" d="m88.15,23.79c-.91.15-1.7-.15-2.5-.41-.81-.18-1.64-.32-2.34.47.12,1.22.69,1.2,1.39,1.09.7-.17,1.57-.37,1.92.11.68-.12,1.09-.17,1.97-.15.37-.11.37-.33.21-.55-.16-.21-.47-.43-.65-.56Z"/><path class="cls-2" d="m82.94,22.69c-.18-.03-.38.08-.49.14-.13.2.2.39.34.57.16.03.64-.47.14-.7Z"/></g></g></g></g></svg>